<?xml version="1.0" encoding="UTF-8" standalone="no"?>
<!-- Created with Inkscape (http://www.inkscape.org/) -->

<svg
   width="47.975418mm"
   height="47.975418mm"
   viewBox="0 0 47.975418 47.975418"
   version="1.1"
   id="svg1"
   xml:space="preserve"
   inkscape:version="1.3 (0e150ed6c4, 2023-07-21)"
   sodipodi:docname="eye.svg"
   xmlns:inkscape="http://www.inkscape.org/namespaces/inkscape"
   xmlns:sodipodi="http://sodipodi.sourceforge.net/DTD/sodipodi-0.dtd"
   xmlns="http://www.w3.org/2000/svg"
   xmlns:svg="http://www.w3.org/2000/svg"><sodipodi:namedview
     id="namedview1"
     pagecolor="#ffffff"
     bordercolor="#000000"
     borderopacity="0.25"
     inkscape:showpageshadow="2"
     inkscape:pageopacity="0.0"
     inkscape:pagecheckerboard="0"
     inkscape:deskcolor="#d1d1d1"
     inkscape:document-units="mm"
     inkscape:zoom="4.0000001"
     inkscape:cx="50.374999"
     inkscape:cy="80.624998"
     inkscape:window-width="1920"
     inkscape:window-height="991"
     inkscape:window-x="2391"
     inkscape:window-y="-9"
     inkscape:window-maximized="1"
     inkscape:current-layer="layer1" /><defs
     id="defs1" /><g
     inkscape:label="Layer 1"
     inkscape:groupmode="layer"
     id="layer1"
     transform="translate(-17.866344,-19.949451)"><circle
       style="fill:#c8c8c8;fill-opacity:1;stroke-width:0.264583"
       id="path2"
       cx="41.854053"
       cy="43.93716"
       r="23.987709" /><path
       style="fill:#1a1a1a;fill-opacity:1"
       d="m 40.55179,67.237543 c -0.02472,-0.02414 -0.406249,-0.07145 -0.847844,-0.105125 -2.532066,-0.193085 -5.177912,-0.953552 -7.826346,-2.249441 -1.43359,-0.701461 -3.5,-1.982752 -4.306987,-2.670575 -2.385088,-2.032895 -3.605589,-3.365991 -5.014922,-5.477565 -1.360134,-2.037859 -2.308633,-3.957375 -2.993655,-6.058381 -0.814018,-2.496646 -1.033317,-3.777997 -1.098027,-6.415712 -0.07271,-2.963792 0.279442,-5.220902 1.245234,-7.981295 0.927069,-2.649718 2.813695,-5.768382 4.796407,-7.928645 2.071945,-2.257485 4.134059,-3.830033 6.78159,-5.171576 2.59425,-1.314544 5.366654,-2.146571 8.281923,-2.485489 1.260447,-0.146534 5.23638,-0.06149 6.375905,0.136382 1.604243,0.278566 3.254926,0.745545 4.853952,1.373186 4.902337,1.924238 9.258238,5.676009 11.872518,10.22589 0.993192,1.728546 1.828878,3.714619 2.325319,5.526304 0.231554,0.84502 0.231194,1.086412 -0.0021,1.382948 -0.329188,0.418495 -0.563776,0.345026 -3.375875,-1.057268 C 55.571089,35.265362 50.370431,33.1977 46.214693,32.15683 44.576255,31.746458 43.719028,31.636923 42.12479,31.634233 c -1.897267,-0.0032 -3.310153,0.260981 -5.028675,0.940267 -0.90562,0.357968 -2.414826,1.143744 -2.721537,1.416983 -0.08988,0.08007 -0.442536,0.38762 -0.783679,0.683441 -0.726589,0.630057 -1.607557,1.640047 -2.153889,2.469335 -1.457,2.211609 -2.25222,5.427331 -1.950453,7.887265 0.247422,2.016926 0.929593,3.878106 2.01116,5.487086 0.502832,0.748032 0.554906,0.971668 0.279481,1.200251 -0.214516,0.178033 -0.648937,0.03703 -2.408066,-0.781602 L 27.669733,50.146406 27.225287,49.215998 C 26.94085,48.620555 26.666802,47.842209 26.464085,47.054047 l -0.316756,-1.231542 -0.011,-1.932591 -0.011,-1.932592 0.163797,-0.808991 c 0.286968,-1.417329 0.497678,-2.154404 0.907152,-3.173269 1.37012,-3.40916 3.779465,-6.096509 6.973455,-7.778085 1.633206,-0.859853 3.801769,-1.49468 6.057354,-1.773236 1.887117,-0.233052 5.295775,0.05765 7.492804,0.63902 2.193371,0.580397 6.526485,2.176669 8.854421,3.261872 0.383148,0.178609 0.696632,0.300387 0.696632,0.270615 0,-0.123994 -1.288642,-1.55527 -1.857372,-2.062957 -0.98435,-0.878696 -1.194885,-1.050932 -2.118168,-1.73284 -2.399262,-1.77202 -5.581926,-3.084422 -8.447836,-3.483545 -1.536027,-0.213916 -4.0258,-0.21636 -5.361843,-0.0053 -1.268966,0.200499 -3.179719,0.677689 -4.012616,1.002109 -1.915878,0.746248 -4.409471,2.208661 -5.737078,3.364613 -2.567277,2.235335 -4.671941,5.152061 -5.677508,7.868113 -0.804137,2.171987 -1.157335,4.149879 -1.157024,6.479267 4.3e-4,3.221119 0.822582,6.138681 2.085817,7.401916 1.149779,1.149779 5.186435,2.738268 9.137473,3.595744 2.021691,0.438758 4.967489,0.992531 5.842719,1.098357 3.685495,0.445623 7.01006,-0.293897 9.752846,-2.169431 0.691894,-0.473122 1.794754,-1.497992 2.363345,-2.19622 1.274514,-1.565098 2.373347,-4.265147 2.559052,-6.288091 0.235444,-2.564788 -0.121069,-4.478714 -1.239236,-6.652794 -0.578848,-1.125468 -0.62332,-1.438506 -0.218786,-1.540037 0.268371,-0.06736 3.505682,1.401558 3.789462,1.719451 0.108698,0.121763 0.338186,0.656381 0.509974,1.188039 1.578856,4.886306 -0.06411,11.202514 -3.864763,14.857661 -1.435476,1.38052 -2.387105,2.058623 -4.008853,2.856592 -3.531594,1.737693 -7.571434,2.060967 -13.01384,1.041387 -3.010361,-0.563961 -5.593566,-1.249342 -8.150176,-2.162423 -0.462194,-0.16507 1.309439,1.382374 2.711953,2.368773 1.884084,1.32509 3.491233,2.124163 5.554451,2.761669 1.219296,0.376745 1.954908,0.525059 3.646982,0.735305 l 1.291291,0.160446 1.495236,-0.10887 c 1.702382,-0.123953 2.769277,-0.314839 4.309629,-0.771067 2.986247,-0.88448 5.647272,-2.458995 7.823518,-4.629135 1.081308,-1.078274 1.745178,-1.891681 2.741288,-3.358765 1.000747,-1.473913 1.74782,-3.03353 2.408394,-5.027853 0.652356,-1.969513 0.672454,-2.013261 1.025032,-2.231167 l 0.287312,-0.177568 h 1.408288 1.408288 l 0.226152,0.14818 c 0.651668,0.426989 0.630265,1.188418 -0.102359,3.641654 -0.58296,1.952074 -1.818477,4.615682 -2.943859,6.346564 -1.41495,2.176249 -3.859254,4.71651 -6.040224,6.277347 -2.437017,1.74408 -5.490042,3.142269 -8.126942,3.721883 -2.031661,0.446576 -2.902059,0.552219 -4.95176,0.601008 -1.112364,0.02648 -2.042704,0.02839 -2.067423,0.0042 z"
       id="path1-9"
       sodipodi:nodetypes="csssssssssssssscssssssssssccsscccsssssssssscssssssssssssssssssssscsssssscccsssssscc" /><circle
       style="fill:#a7755b;fill-opacity:1;stroke-width:0.732304"
       id="path3-8"
       cx="41.854053"
       cy="43.93716"
       r="9.124814" /><circle
       style="fill:#878f55;fill-opacity:1;stroke-width:0.264583"
       id="path3"
       cx="38.810608"
       cy="40.721806"
       r="3.2968144" /></g></svg>
